# xmcd CD database file
#
# Track frame offsets:
#	150
#	13452
#	27936
#	40522
#	54032
#	67536
#	81169
#	94685
#	107694
#	122122
#	135841
#	149107
#	162130
#	176355
#	191183
#	200631
#	209328
#	222460
#	235983
#	249307
#	262893
#	277862
#
# Disc length: 3883 seconds
#
# Revision: 0
# Processed by: cddbd v1.5.2PL0 Copyright (c) Steve Scherf et al.
# Submitted via: CDex 1.51
#
DISCID=300f2916
DTITLE=Dameron, Tadd - 1947-1949
DYEAR=1949
DGENRE=Jazz
TTITLE0=I think I'll go away
TTITLE1=Don't mention love to me
TTITLE2=The chase
TTITLE3=The squirrel
TTITLE4=Our delight
TTITLE5=Dameronia
TTITLE6=A be-bop carroll
TTITLE7=The Tadd walk
TTITLE8=Gone with the wind
TTITLE9=That someone must be you
TTITLE10=Jahbero
TTITLE11=Lady bird
TTITLE12=Symphonette
TTITLE13=I think I'll go away
TTITLE14=Anthropology part 1
TTITLE15=Anthropology part 2
TTITLE16=Sid's delight
TTITLE17=Casbah
TTITLE18=John's delight
TTITLE19=What's new
TTITLE20=Heaven's doors are wide open
TTITLE21=Focus
EXTD=YEAR: 1949
EXTT0=
EXTT1=
EXTT2=
EXTT3=
EXTT4=
EXTT5=
EXTT6=
EXTT7=
EXTT8=
EXTT9=
EXTT10=
EXTT11=
EXTT12=
EXTT13=
EXTT14=
EXTT15=
EXTT16=
EXTT17=
EXTT18=
EXTT19=
EXTT20=
EXTT21=
PLAYORDER=
